<svg width="2353" height="1050" viewBox="0 0 2353 1050" fill="none" xmlns="http://www.w3.org/2000/svg">
<path fill-rule="evenodd" clip-rule="evenodd" d="M0 328.044V492.112H479.92C535.703 492.112 606.972 440.531 606.972 355.203C606.972 320.885 620.097 298.499 579.761 253.105L518.376 180.371C483.202 147.557 522.578 147.557 552.123 147.557H754.75V492.112H915.445V147.557H1132.03V0H430.7C345.372 0 303.648 81.93 305.996 124.588C308.356 167.245 316.203 220.914 387.109 285.387C451.789 344.179 355.086 328.044 345.372 328.044H0V328.044ZM1487.36 0H1228.12L1082.79 492.125H1244.53L1270.76 423.216H1441.39L1466.72 492.125H1625.15L1487.36 0V0ZM1306.87 305.075L1362.66 124.588L1415.17 305.075H1306.87V305.075ZM2137.08 328.044C2074.73 328.044 2074.73 305.075 2074.73 305.075C2128.16 305.075 2175.52 227.243 2175.52 147.557C2175.52 67.8708 2097.7 0 2035.33 0H1686.56V492.125H1863.78V328.057C1863.78 328.057 1939.24 416.654 1978.62 452.749C2018 488.843 2021.27 492.125 2074.72 492.125H2352.91V328.057C2352.94 328.044 2199.43 328.044 2137.08 328.044V328.044ZM1976.28 213.197H1863.81V124.588H1976.28C2027.85 124.588 2036.77 213.197 1976.28 213.197ZM0 554.457H181.304L227.243 718.551L269.901 554.457H460.232L509.452 718.551L558.686 554.457H716.19L571.798 1046.7H427.419L364.152 813.697L292.87 1046.7H145.209L0 554.457ZM1088.28 557.298H829.04L683.727 1049.41H845.447L871.698 980.514H1042.34L1067.67 1049.41H1226.11L1088.28 557.298ZM907.806 862.36L963.589 681.872L1016.09 862.36H907.806ZM2140.35 702.144C2110.84 702.144 2078.66 705.594 2113.85 738.395L2175.25 811.142C2215.57 856.536 2214.92 875.459 2214.92 909.803C2214.92 995.118 2130.52 1046.7 2074.73 1046.7L1686.99 1049.31C1633.57 1049.31 1630.3 1046.04 1590.91 1009.94C1551.55 973.848 1476.06 885.238 1476.06 885.238V1049.31H1298.87V557.194H1647.64C1709.99 557.194 1787.83 625.078 1787.83 704.751C1787.83 784.45 1740.46 862.269 1687.02 862.269C1687.02 862.269 1710.52 885.9 1749.89 885.9C1789.28 885.9 1940.9 886.055 1940.9 886.055C1950.6 886.055 2047.29 902.19 1982.62 843.398C1911.72 778.925 1903.87 725.282 1901.51 682.625C1899.15 639.967 1936.04 554.47 2021.32 554.47H2352.96V702.157H2140.35V702.144V702.144ZM1588.55 770.378H1476.05V681.769H1588.55C1640.13 681.769 1649.04 770.378 1588.55 770.378Z" fill="white"/>
</svg>
